<svg width="109" height="21" viewBox="0 0 109 21" fill="none" xmlns="http://www.w3.org/2000/svg">
<path d="M1.746 17C1.614 17 1.5 16.952 1.404 16.856C1.308 16.76 1.26 16.646 1.26 16.514V4.886C1.26 4.754 1.308 4.64 1.404 4.544C1.5 4.448 1.614 4.4 1.746 4.4H7.542C8.562 4.4 9.39 4.58 10.026 4.94C10.662 5.3 11.118 5.762 11.394 6.326C11.682 6.878 11.826 7.484 11.826 8.144C11.826 8.744 11.718 9.23 11.502 9.602C11.298 9.962 11.07 10.238 10.818 10.43C11.274 10.742 11.598 11.114 11.79 11.546C11.982 11.966 12.078 12.482 12.078 13.094C12.078 14.21 11.742 15.14 11.07 15.884C10.398 16.628 9.348 17 7.92 17H1.746ZM4.59 7.19V9.242H7.38C7.74 9.242 8.01 9.152 8.19 8.972C8.382 8.792 8.478 8.54 8.478 8.216C8.478 7.892 8.382 7.64 8.19 7.46C8.01 7.28 7.74 7.19 7.38 7.19H4.59ZM7.56 14.21C7.92 14.21 8.208 14.108 8.424 13.904C8.64 13.7 8.748 13.436 8.748 13.112C8.748 12.788 8.64 12.524 8.424 12.32C8.208 12.116 7.92 12.014 7.56 12.014H4.59V14.21H7.56ZM28.5465 4.4C28.6785 4.4 28.7925 4.448 28.8885 4.544C28.9845 4.64 29.0325 4.754 29.0325 4.886V12.068C29.0325 13.148 28.8045 14.072 28.3485 14.84C27.8925 15.608 27.2505 16.19 26.4225 16.586C25.6065 16.982 24.6525 17.18 23.5605 17.18C22.4565 17.18 21.4905 16.982 20.6625 16.586C19.8465 16.19 19.2105 15.608 18.7545 14.84C18.3105 14.072 18.0885 13.148 18.0885 12.068V4.886C18.0885 4.754 18.1365 4.64 18.2325 4.544C18.3285 4.448 18.4425 4.4 18.5745 4.4H20.9325C21.0645 4.4 21.1785 4.448 21.2745 4.544C21.3705 4.64 21.4185 4.754 21.4185 4.886V11.996C21.4185 12.728 21.5985 13.298 21.9585 13.706C22.3305 14.102 22.8645 14.3 23.5605 14.3C24.2565 14.3 24.7845 14.102 25.1445 13.706C25.5165 13.298 25.7025 12.728 25.7025 11.996V4.886C25.7025 4.754 25.7505 4.64 25.8465 4.544C25.9425 4.448 26.0565 4.4 26.1885 4.4H28.5465ZM38.4712 9.188C38.4352 9.476 38.4172 9.938 38.4172 10.574C38.4172 11.318 38.4352 11.864 38.4712 12.212C38.5192 12.824 38.7232 13.328 39.0832 13.724C39.4432 14.108 39.9952 14.3 40.7392 14.3C41.4232 14.3 41.9692 14.144 42.3772 13.832C42.7972 13.508 43.0072 13.004 43.0072 12.32H41.4952C41.3632 12.32 41.2492 12.272 41.1532 12.176C41.0572 12.08 41.0092 11.966 41.0092 11.834V9.926C41.0092 9.794 41.0572 9.68 41.1532 9.584C41.2492 9.488 41.3632 9.44 41.4952 9.44H45.8512C45.9832 9.44 46.0972 9.488 46.1932 9.584C46.2892 9.68 46.3372 9.794 46.3372 9.926V12.23C46.3372 13.226 46.0912 14.102 45.5992 14.858C45.1072 15.602 44.4352 16.178 43.5832 16.586C42.7432 16.982 41.7952 17.18 40.7392 17.18C39.6232 17.18 38.6512 16.964 37.8232 16.532C36.9952 16.088 36.3532 15.5 35.8972 14.768C35.4412 14.024 35.1892 13.202 35.1412 12.302C35.1172 11.726 35.1052 11.252 35.1052 10.88C35.1052 10.436 35.1172 9.842 35.1412 9.098C35.1772 8.198 35.4232 7.382 35.8792 6.65C36.3352 5.906 36.9772 5.318 37.8052 4.886C38.6452 4.442 39.6232 4.22 40.7392 4.22C41.8072 4.22 42.7492 4.418 43.5652 4.814C44.3932 5.21 45.0352 5.708 45.4912 6.308C45.9592 6.908 46.2112 7.49 46.2472 8.054C46.2592 8.162 46.2232 8.258 46.1392 8.342C46.0552 8.414 45.9592 8.45 45.8512 8.45H43.4572C43.3012 8.45 43.1752 8.414 43.0792 8.342C42.9952 8.258 42.8812 8.132 42.7372 7.964C42.5212 7.7 42.2632 7.49 41.9632 7.334C41.6752 7.178 41.2672 7.1 40.7392 7.1C39.3832 7.1 38.6272 7.796 38.4712 9.188Z" fill="white" fill-opacity="0.51"/>
<path d="M64.798 13.85C64.798 14.366 64.9 14.762 65.104 15.038C65.32 15.314 65.722 15.452 66.31 15.452H67.264C67.396 15.452 67.51 15.5 67.606 15.596C67.702 15.692 67.75 15.806 67.75 15.938V16.514C67.75 16.646 67.702 16.76 67.606 16.856C67.51 16.952 67.396 17 67.264 17H66.13C65.11 17 64.36 16.736 63.88 16.208C63.4 15.668 63.16 14.882 63.16 13.85V9.188H61.828C61.696 9.188 61.582 9.14 61.486 9.044C61.39 8.948 61.342 8.834 61.342 8.702V8.126C61.342 7.994 61.39 7.88 61.486 7.784C61.582 7.688 61.696 7.64 61.828 7.64H63.16V4.706C63.16 4.574 63.208 4.46 63.304 4.364C63.4 4.268 63.514 4.22 63.646 4.22H64.312C64.444 4.22 64.558 4.268 64.654 4.364C64.75 4.46 64.798 4.574 64.798 4.706V7.64H67.084C67.216 7.64 67.33 7.688 67.426 7.784C67.522 7.88 67.57 7.994 67.57 8.126V8.702C67.57 8.834 67.522 8.948 67.426 9.044C67.33 9.14 67.216 9.188 67.084 9.188H64.798V13.85ZM74.309 7.64C74.441 7.64 74.555 7.688 74.651 7.784C74.747 7.88 74.795 7.994 74.795 8.126V8.702C74.795 8.834 74.747 8.948 74.651 9.044C74.555 9.14 74.441 9.188 74.309 9.188H73.265C72.593 9.188 72.077 9.368 71.717 9.728C71.369 10.076 71.195 10.586 71.195 11.258V16.514C71.195 16.646 71.147 16.76 71.051 16.856C70.955 16.952 70.841 17 70.709 17H70.043C69.911 17 69.797 16.952 69.701 16.856C69.605 16.76 69.557 16.646 69.557 16.514V8.126C69.557 7.994 69.605 7.88 69.701 7.784C69.797 7.688 69.911 7.64 70.043 7.64H70.709C70.841 7.64 70.955 7.688 71.051 7.784C71.147 7.88 71.195 7.994 71.195 8.126V8.684C71.435 8.324 71.723 8.06 72.059 7.892C72.395 7.724 72.833 7.64 73.373 7.64H74.309ZM81.9218 11.078V10.844C81.9218 10.256 81.7238 9.806 81.3278 9.494C80.9438 9.17 80.4398 9.008 79.8158 9.008C79.3358 9.008 78.9578 9.092 78.6818 9.26C78.4178 9.416 78.1658 9.656 77.9258 9.98C77.8538 10.076 77.7758 10.142 77.6918 10.178C77.6078 10.214 77.4938 10.232 77.3498 10.232H76.8098C76.6778 10.232 76.5578 10.184 76.4498 10.088C76.3538 9.992 76.3118 9.878 76.3238 9.746C76.3598 9.386 76.5338 9.032 76.8458 8.684C77.1698 8.324 77.5958 8.03 78.1238 7.802C78.6518 7.574 79.2158 7.46 79.8158 7.46C80.9318 7.46 81.8318 7.772 82.5158 8.396C83.2118 9.02 83.5598 9.896 83.5598 11.024V16.514C83.5598 16.646 83.5118 16.76 83.4158 16.856C83.3198 16.952 83.2058 17 83.0738 17H82.4078C82.2758 17 82.1618 16.952 82.0658 16.856C81.9698 16.76 81.9218 16.646 81.9218 16.514V15.776C81.7298 16.208 81.3218 16.55 80.6978 16.802C80.0738 17.054 79.4498 17.18 78.8258 17.18C78.2138 17.18 77.6678 17.072 77.1878 16.856C76.7078 16.628 76.3358 16.322 76.0718 15.938C75.8198 15.554 75.6938 15.122 75.6938 14.642C75.6938 13.742 76.0298 13.04 76.7018 12.536C77.3738 12.02 78.2678 11.672 79.3838 11.492L81.9218 11.078ZM81.9218 12.518L79.7978 12.86C79.0178 12.98 78.4118 13.178 77.9798 13.454C77.5478 13.718 77.3318 14.054 77.3318 14.462C77.3318 14.762 77.4698 15.032 77.7458 15.272C78.0218 15.512 78.4418 15.632 79.0058 15.632C79.8698 15.632 80.5718 15.386 81.1118 14.894C81.6518 14.402 81.9218 13.76 81.9218 12.968V12.518ZM89.9659 15.632C91.1659 15.632 91.9759 15.164 92.3959 14.228C92.4799 14.048 92.5639 13.922 92.6479 13.85C92.7319 13.778 92.8459 13.742 92.9899 13.742H93.5299C93.6619 13.742 93.7759 13.79 93.8719 13.886C93.9679 13.97 94.0159 14.072 94.0159 14.192C94.0159 14.6 93.8539 15.038 93.5299 15.506C93.2059 15.974 92.7379 16.37 92.1259 16.694C91.5139 17.018 90.7939 17.18 89.9659 17.18C89.1139 17.18 88.3759 17 87.7519 16.64C87.1279 16.28 86.6479 15.788 86.3119 15.164C85.9759 14.528 85.7899 13.82 85.7539 13.04C85.7419 12.896 85.7359 12.62 85.7359 12.212C85.7359 11.924 85.7419 11.72 85.7539 11.6C85.8619 10.376 86.2759 9.38 86.9959 8.612C87.7159 7.844 88.7059 7.46 89.9659 7.46C90.7939 7.46 91.5079 7.622 92.1079 7.946C92.7199 8.258 93.1819 8.648 93.4939 9.116C93.8179 9.572 93.9919 10.004 94.0159 10.412C94.0279 10.544 93.9799 10.658 93.8719 10.754C93.7759 10.85 93.6619 10.898 93.5299 10.898H92.9899C92.8459 10.898 92.7319 10.862 92.6479 10.79C92.5639 10.718 92.4799 10.592 92.3959 10.412C91.9759 9.476 91.1659 9.008 89.9659 9.008C89.3059 9.008 88.7299 9.23 88.2379 9.674C87.7459 10.118 87.4639 10.79 87.3919 11.69C87.3799 11.822 87.3739 12.038 87.3739 12.338C87.3739 12.614 87.3799 12.818 87.3919 12.95C87.4759 13.85 87.7579 14.522 88.2379 14.966C88.7299 15.41 89.3059 15.632 89.9659 15.632ZM97.8083 16.514C97.8083 16.646 97.7603 16.76 97.6643 16.856C97.5683 16.952 97.4543 17 97.3223 17H96.6563C96.5243 17 96.4103 16.952 96.3143 16.856C96.2183 16.76 96.1703 16.646 96.1703 16.514V4.706C96.1703 4.574 96.2183 4.46 96.3143 4.364C96.4103 4.268 96.5243 4.22 96.6563 4.22H97.3223C97.4543 4.22 97.5683 4.268 97.6643 4.364C97.7603 4.46 97.8083 4.574 97.8083 4.706V10.664L101.318 7.946C101.45 7.85 101.564 7.778 101.66 7.73C101.756 7.67 101.876 7.64 102.02 7.64H102.92C103.04 7.64 103.142 7.682 103.226 7.766C103.31 7.85 103.352 7.952 103.352 8.072C103.352 8.204 103.286 8.324 103.154 8.432L98.8163 11.816L103.604 16.226C103.724 16.346 103.784 16.46 103.784 16.568C103.784 16.688 103.742 16.79 103.658 16.874C103.574 16.958 103.472 17 103.352 17H102.506C102.254 17 102.008 16.898 101.768 16.694L97.8083 13.04V16.514Z" fill="white" fill-opacity="0.51"/>
<path d="M106.84 14.822C106.972 14.822 107.086 14.87 107.182 14.966C107.278 15.062 107.326 15.176 107.326 15.308V16.514C107.326 16.646 107.278 16.76 107.182 16.856C107.086 16.952 106.972 17 106.84 17H105.634C105.502 17 105.388 16.952 105.292 16.856C105.196 16.76 105.148 16.646 105.148 16.514V15.308C105.148 15.176 105.196 15.062 105.292 14.966C105.388 14.87 105.502 14.822 105.634 14.822H106.84Z" fill="#FF0000" fill-opacity="0.51"/>
<path fill-rule="evenodd" clip-rule="evenodd" d="M54.5 6C55.875 6 57 4.875 57 3.5C57 2.125 55.875 1 54.5 1C53.125 1 52 2.125 52 3.5C52 4.875 53.125 6 54.5 6ZM54.5 8.5C53.125 8.5 52 9.625 52 11C52 12.375 53.125 13.5 54.5 13.5C55.875 13.5 57 12.375 57 11C57 9.625 55.875 8.5 54.5 8.5ZM52 18.5C52 17.125 53.125 16 54.5 16C55.875 16 57 17.125 57 18.5C57 19.875 55.875 21 54.5 21C53.125 21 52 19.875 52 18.5Z" fill="#FF0000" fill-opacity="0.51"/>
</svg>
